<svg xmlns="http://www.w3.org/2000/svg" xmlns:xlink="http://www.w3.org/1999/xlink" width="1600" height="860" viewBox="0 0 1600 860" font-family="DejaVu Sans, Arial, sans-serif">
<rect width="1600" height="860" fill="#161616"/>
<text x="60" y="88" font-size="44" font-weight="700" fill="#fff">Maria Guedes — logo concepts, in project green</text>
<text x="60" y="126" font-size="22" fill="#9a9a9a">#BAE467 on the portfolio background #161616</text>
<rect x="60" y="160" width="480" height="650" rx="26" fill="#1d1d1d" stroke="#2c2c2c" stroke-width="1.5"/>
<image x="130.0" y="190" width="340" height="340" xlink:href="a-cursor-m-color.svg" href="a-cursor-m-color.svg"/>
<image x="100" y="560" width="64" height="64" xlink:href="a-cursor-m-color.svg" href="a-cursor-m-color.svg"/>
<text x="132.0" y="650" font-size="14" fill="#7a7a7a" text-anchor="middle">64px</text>
<image x="190" y="592" width="32" height="32" xlink:href="a-cursor-m-color.svg" href="a-cursor-m-color.svg"/>
<text x="206.0" y="650" font-size="14" fill="#7a7a7a" text-anchor="middle">32px</text>
<image x="250" y="608" width="16" height="16" xlink:href="a-cursor-m-color.svg" href="a-cursor-m-color.svg"/>
<text x="258.0" y="650" font-size="14" fill="#7a7a7a" text-anchor="middle">16px</text>
<text x="100" y="700" font-size="30" font-weight="700" fill="#fff">A · M.</text>
<text x="100" y="738" font-size="19" fill="#b8b8b8">White M, lime cursor: the green is the</text>
<text x="100" y="764" font-size="19" fill="#b8b8b8">one live detail.</text>
<rect x="570" y="160" width="480" height="650" rx="26" fill="#1d1d1d" stroke="#2c2c2c" stroke-width="1.5"/>
<image x="640.0" y="190" width="340" height="340" xlink:href="b2-g-prompt-color.svg" href="b2-g-prompt-color.svg"/>
<image x="610" y="560" width="64" height="64" xlink:href="b2-g-prompt-color.svg" href="b2-g-prompt-color.svg"/>
<text x="642.0" y="650" font-size="14" fill="#7a7a7a" text-anchor="middle">64px</text>
<image x="700" y="592" width="32" height="32" xlink:href="b2-g-prompt-color.svg" href="b2-g-prompt-color.svg"/>
<text x="716.0" y="650" font-size="14" fill="#7a7a7a" text-anchor="middle">32px</text>
<image x="760" y="608" width="16" height="16" xlink:href="b2-g-prompt-color.svg" href="b2-g-prompt-color.svg"/>
<text x="768.0" y="650" font-size="14" fill="#7a7a7a" text-anchor="middle">16px</text>
<text x="610" y="700" font-size="30" font-weight="700" fill="#fff">B · G›</text>
<text x="610" y="738" font-size="19" fill="#b8b8b8">White G, lime prompt chevron.</text>
<rect x="1080" y="160" width="480" height="650" rx="26" fill="#1d1d1d" stroke="#BAE467" stroke-width="3"/>
<image x="1150.0" y="190" width="340" height="340" xlink:href="c-bubble-m-color.svg" href="c-bubble-m-color.svg"/>
<image x="1120" y="560" width="64" height="64" xlink:href="c-bubble-m-color.svg" href="c-bubble-m-color.svg"/>
<text x="1152.0" y="650" font-size="14" fill="#7a7a7a" text-anchor="middle">64px</text>
<image x="1210" y="592" width="32" height="32" xlink:href="c-bubble-m-color.svg" href="c-bubble-m-color.svg"/>
<text x="1226.0" y="650" font-size="14" fill="#7a7a7a" text-anchor="middle">32px</text>
<image x="1270" y="608" width="16" height="16" xlink:href="c-bubble-m-color.svg" href="c-bubble-m-color.svg"/>
<text x="1278.0" y="650" font-size="14" fill="#7a7a7a" text-anchor="middle">16px</text>
<text x="1120" y="700" font-size="30" font-weight="700" fill="#fff">C · Oi</text>
<text x="1520" y="700" font-size="15" font-weight="700" fill="#BAE467" text-anchor="end" letter-spacing="2">RECOMMENDED</text>
<text x="1120" y="738" font-size="19" fill="#b8b8b8">Lime bubble, the same one that greets</text>
<text x="1120" y="764" font-size="19" fill="#b8b8b8">visitors on your site.</text>
</svg>